<?xml version="1.0" encoding="UTF-8"?>
<svg width="32px" height="32px" viewBox="0 0 32 32" version="1.1" xmlns="http://www.w3.org/2000/svg" xmlns:xlink="http://www.w3.org/1999/xlink">
    <!-- Generator: Sketch 54.1 (76490) - https://sketchapp.com -->
    <title>guide-icons/agile</title>
    <desc>Created with Sketch.</desc>
    <g id="Support" stroke="none" stroke-width="1" fill="none" fill-rule="evenodd">
        <g id="Desktop-HD" transform="translate(-754.000000, -649.000000)" fill="#FFFFFF" fill-rule="nonzero">
            <g id="section-get-started" transform="translate(168.000000, 528.000000)">
                <g id="agile-project-management" transform="translate(562.000000, 0.000000)">
                    <g id="guide-icons/agile" transform="translate(24.000000, 121.000000)">
                        <path d="M24.7201594,25.1495385 L27.8854362,25.1495385 L27.8854362,23.7679775 L30.9625503,26.877606 L27.8854362,29.9875497 L27.8854362,28.6059887 L20.4049698,28.6059887 C22.0614413,27.7498086 23.5244228,26.5702364 24.7201594,25.1495385 Z" id="path85"></path>
                        <path d="M12.7522349,6.92968105 C8.35278356,7.55918199 4.9623406,11.3830994 4.9623406,15.9944315 C4.9623406,19.1572758 6.55910067,21.9504991 8.97850503,23.5966154 L4.07249497,23.5966154 C2.48624161,21.480803 1.54037752,18.8467542 1.54037752,15.9944315 C1.54037752,9.53777861 6.37237248,4.20091557 12.5726326,3.47102439 L10.9477332,5.11031144 L12.7522349,6.92968105 Z" id="path87"></path>
                        <path d="M1.71285403,26.8776585 L0.00343288591,25.1498537 L14.0288523,25.1498537 C19.02625,25.1498537 23.0952601,21.0435722 23.0952601,15.9947467 C23.0952601,11.4757148 19.8352668,7.71336585 15.5692819,6.97254784 L15.5692819,8.22030769 L12.4884228,5.11062664 L15.5692299,2 L15.5692299,3.48163602 C21.7304799,4.25066417 26.5169631,9.56619887 26.5169631,15.9944315 C26.5169631,22.9483602 20.9146493,28.6060413 14.0288523,28.6060413 L0,28.6060413 L1.71285403,26.8776585 Z" id="path89"></path>
                    </g>
                </g>
            </g>
        </g>
    </g>
</svg>