<?xml version="1.0" encoding="UTF-8"?>
<svg width="32px" height="32px" viewBox="0 0 32 32" version="1.1" xmlns="http://www.w3.org/2000/svg" xmlns:xlink="http://www.w3.org/1999/xlink">
    <title>guide-icons/CD</title>
    <g id="Symbols" stroke="none" stroke-width="1" fill="none" fill-rule="evenodd">
        <g id="guide-icons/CD" fill="#FFFFFF" fill-rule="nonzero">
            <path d="M8.38574212,24.1680147 C8.5409873,24.4801306 8.84942684,24.6928037 9.20457851,24.6928037 L9.26332918,24.6908864 L10.0270596,24.6407927 L10.2170468,25.4289878 C10.529069,26.7234669 11.631964,27.6459458 12.9074356,27.6459458 C14.1829073,27.6459458 15.2858023,26.7234669 15.5978245,25.4289878 L15.7878117,24.6407927 L16.5515421,24.6908864 L16.6102928,24.6928037 C16.9654445,24.6928037 17.273884,24.4801306 17.4291292,24.1680147 L20.1326064,24.1674032 C19.9421401,25.4744531 18.9651398,26.519448 17.7087505,26.7846746 C16.9213341,28.6985508 15.071248,30 12.9663475,30 C10.861447,30 9.01136084,28.6985508 8.2239445,26.7846746 C6.96755515,26.519448 5.99055484,25.4744531 5.80008855,24.1674032 L8.38574212,24.1680147 Z M13.0154636,2 L20.2,8.92343558 L20.1989091,21.9071332 L21.7734375,21.9072727 C21.3742118,21.009512 20.8490693,20.238999 20.2005331,19.5959605 L20.1995761,16.843205 C22.51214,18.287853 24.178896,20.4209906 24.7265239,22.9192211 L25,24.1667952 L1,24.1667952 L1.27347612,22.9192211 C1.82102598,20.4213465 3.48738512,18.2884608 5.79943553,16.8438225 L5.8,8.92343558 L13.0154636,2 Z M4.1115625,21.9072727 L5.79890909,21.9069231 L5.79984869,19.5074402 C5.09502189,20.1679045 4.52927699,20.9679352 4.1115625,21.9072727 Z M13.0118389,5.28184637 L8.2,9.898938 L8.2,21.8334483 L17.8,21.8334483 L17.8,9.89599586 L13.0118389,5.28184637 Z M13,10.166714 C14.3254834,10.166714 15.4,11.211389 15.4,12.5000609 C15.4,13.7887328 14.3254834,14.8334077 13,14.8334077 C11.6745166,14.8334077 10.6,13.7887328 10.6,12.5000609 C10.6,11.211389 11.6745166,10.166714 13,10.166714 Z" id="Shape"></path>
        </g>
    </g>
</svg>