<?xml version="1.0" encoding="UTF-8"?>
<svg width="18px" height="18px" viewBox="0 0 18 18" version="1.1" xmlns="http://www.w3.org/2000/svg" xmlns:xlink="http://www.w3.org/1999/xlink">
    <!-- Generator: Sketch 54.1 (76490) - https://sketchapp.com -->
    <title>icons/chat</title>
    <desc>Created with Sketch.</desc>
    <g id="Support" stroke="none" stroke-width="1" fill="none" fill-rule="evenodd">
        <g id="Desktop-HD" transform="translate(-212.000000, -3004.000000)" fill="#FFFFFF" fill-rule="nonzero">
            <g id="section-contact" transform="translate(168.000000, 2765.000000)">
                <g id="online-support" transform="translate(0.000000, 140.000000)">
                    <g id="button-online" transform="translate(32.000000, 88.000000)">
                        <g id="icons/chat" transform="translate(12.000000, 11.000000)">
                            <path d="M16,5 L15,5 L15,11 C15,11.552 14.552,12 14,12 L7.828,12 L6,14 L11,14 L14,17 L14,14 L16,14 C16.552,14 17,13.552 17,13 L17,6 C17,5.448 16.552,5 16,5 Z" id="Path"></path>
                            <path d="M2,1 L12,1 C12.552,1 13,1.448 13,2 L13,9 C13,9.552 12.552,10 12,10 L7,10 L4,13 L4,10 L2,10 C1.448,10 1,9.552 1,9 L1,2 C1,1.448 1.448,1 2,1 Z" id="Path"></path>
                        </g>
                    </g>
                </g>
            </g>
        </g>
    </g>
</svg>