<?xml version="1.0" encoding="UTF-8"?>
<svg width="32px" height="32px" viewBox="0 0 32 32" version="1.1" xmlns="http://www.w3.org/2000/svg" xmlns:xlink="http://www.w3.org/1999/xlink">
    <!-- Generator: Sketch 54.1 (76490) - https://sketchapp.com -->
    <title>guide-icons/coding-monkey</title>
    <desc>Created with Sketch.</desc>
    <g id="Support" stroke="none" stroke-width="1" fill="none" fill-rule="evenodd">
        <g id="Desktop-HD" transform="translate(-1035.000000, -649.000000)" fill="#FFFFFF">
            <g id="section-get-started" transform="translate(168.000000, 528.000000)">
                <g id="migrate-to-coding" transform="translate(843.000000, 0.000000)">
                    <g id="guide-icons/coding-monkey" transform="translate(24.000000, 121.000000)">
                        <path d="M9.71162108,17.3256529 C9.42418842,17.3256529 9.19109235,17.6075041 9.19109235,17.955405 C9.19109235,18.3031074 9.42418842,18.585157 9.71162108,18.585157 C9.99905374,18.585157 10.2321498,18.3031074 10.2321498,17.955405 C10.2321498,17.6075041 9.99905374,17.3256529 9.71162108,17.3256529" id="Fill-50"></path>
                        <path d="M22.0742966,17.3256529 C21.7868639,17.3256529 21.5537678,17.6075041 21.5537678,17.955405 C21.5537678,18.3031074 21.7868639,18.585157 22.0742966,18.585157 C22.3617292,18.585157 22.5948253,18.3031074 22.5948253,17.955405 C22.5948253,17.6075041 22.3617292,17.3256529 22.0742966,17.3256529" id="Fill-51"></path>
                        <path d="M29.5928655,18.0743339 C29.0939927,18.2704992 28.5996479,18.0941686 28.4884154,17.6808132 C28.3773797,17.2672595 28.6917838,16.7729785 29.1906567,16.5770116 C29.6895295,16.3808463 30.1840712,16.5569785 30.2951068,16.9705322 C30.4061424,17.384086 30.0917384,17.8781686 29.5928655,18.0743339 M15.9711169,26.3951934 C10.4907998,26.3864661 6.05272147,23.7845488 6.05272147,20.0595901 C6.05272147,19.9814413 6.05547767,19.904086 6.05921823,19.8271273 C6.06059634,19.8015405 6.06177757,19.7761521 6.06354941,19.750962 C6.06689623,19.6982017 6.07162115,19.645838 6.07673981,19.5934744 C6.08382719,19.5234579 6.09189893,19.4536397 6.10213626,19.3840198 C6.10312062,19.377276 6.10390811,19.3703339 6.10508934,19.3633917 C6.21533748,18.6312926 6.49784834,17.5140033 6.92427241,16.8701686 C7.94918639,15.3766149 9.77713997,14.3817058 11.8624048,14.3817058 C13.4678934,14.3817058 14.9196252,14.9723835 15.9711169,15.9250446 C17.0226085,14.9723835 18.4743403,14.3817058 20.079632,14.3817058 C22.1650938,14.3817058 23.9930474,15.3766149 25.0177645,16.8701686 C25.4443854,17.5140033 25.7266994,18.6312926 25.8371444,19.3633917 C25.8381288,19.3703339 25.8391131,19.377276 25.8399006,19.3840198 C25.8501379,19.4536397 25.8584066,19.5234579 25.8652971,19.5934744 C25.8704157,19.645838 25.8751406,19.6982017 25.8786843,19.750962 C25.8802593,19.7761521 25.8816374,19.8015405 25.8828186,19.8271273 C25.8865592,19.904086 25.8893154,19.9814413 25.8893154,20.0595901 C25.8893154,23.7845488 21.4512371,26.3864661 15.9711169,26.3951934 M3.45362151,17.6808132 C3.34258588,18.0941686 2.84804421,18.2704992 2.34936823,18.0743339 C1.85049539,17.8781686 1.53609131,17.384086 1.64712694,16.9705322 C1.75816257,16.5569785 2.25250736,16.3808463 2.75138021,16.5770116 C3.25025306,16.7729785 3.56465713,17.2672595 3.45362151,17.6808132 M29.5678628,13.9106314 C28.7140303,13.9106314 27.9659179,14.4562843 27.5475656,15.2746645 C26.1241833,12.1649785 23.1630363,9.28398678 19.5035855,8.09767273 C17.5291594,7.3038876 16.1425921,5.78038347 15.9711169,3.99982149 C15.7996416,5.78038347 14.4130744,7.3038876 12.4384514,8.09767273 C8.77900054,9.28398678 5.81805042,12.1649785 4.39466815,15.2746645 C3.97631582,14.4562843 3.22800656,13.9106314 2.37417407,13.9106314 C1.06300865,13.9106314 -9.84358419e-05,15.196714 -9.84358419e-05,16.7830942 C-9.84358419e-05,18.3694744 1.06300865,19.6553587 2.37417407,19.6553587 C2.7730361,19.6553587 3.14866727,19.5359537 3.47862421,19.3257058 C3.59143168,24.4765818 9.13848823,27.820119 15.9711169,27.8290446 C22.8037455,27.820119 28.3506052,24.4765818 28.4636095,19.3257058 C28.7935665,19.5359537 29.1690008,19.6553587 29.5678628,19.6553587 C30.8792251,19.6553587 31.9421353,18.3694744 31.9421353,16.7830942 C31.9421353,15.196714 30.8792251,13.9106314 29.5678628,13.9106314" id="Fill-52"></path>
                    </g>
                </g>
            </g>
        </g>
    </g>
</svg>