<?xml version="1.0" encoding="UTF-8"?>
<svg width="32px" height="32px" viewBox="0 0 32 32" version="1.1" xmlns="http://www.w3.org/2000/svg" xmlns:xlink="http://www.w3.org/1999/xlink">
    <title>guide-icons/CONFIG CENTER</title>
    <g id="guide-icons/CONFIG-CENTER" stroke="none" stroke-width="1" fill="none" fill-rule="evenodd">
        <path d="M8.41576675,20.5506322 L10.6916158,21.6632165 L11.0506858,28 L7.98454625,27.4472744 L7.80652233,24.704085 L5.56900336,26.2671648 L3.25512019,24.1893507 L8.41576675,20.5506322 Z M15.5459094,20.5704711 L20.7488557,24.1881763 L18.4266074,26.2696481 L16.1603552,24.721053 L16.0116669,27.4509956 L12.953553,27.9993659 L13.2700604,21.6830554 L15.5459094,20.5704711 Z M0.154848593,14.2874133 L6.22381032,16.0173857 L6.79341204,18.4903331 L2.10618974,22.7578983 L0.605158506,20.0216835 L2.6202334,18.1565564 L0,17.3974263 L0.154848593,14.2874133 Z M23.8475798,14.2853357 L24,17.4041666 L21.3732128,18.1947344 L23.3961804,20.0287337 L21.8968231,22.755956 L17.1986888,18.5344291 L17.7682906,16.0614817 L23.8475798,14.2853357 Z M12.1484808,13.9718611 C13.4677686,13.9718611 14.5372628,15.0438396 14.5372628,16.3661922 C14.5372628,17.6885447 13.4677686,18.7605233 12.1484808,18.7605233 C10.8291929,18.7605233 9.75969876,17.6885447 9.75969876,16.3661922 C9.75969876,15.0438396 10.8291929,13.9718611 12.1484808,13.9718611 Z M17.9789892,5.66698547 L20.5248048,7.46674169 L19.5291623,10.0281754 L22.2164502,9.55950818 L23.4374535,12.4228082 L17.2260944,13.5345572 L15.6325834,11.5621638 L17.9789892,5.66698547 Z M6.02174019,5.66839937 L8.39808869,11.5269933 L6.8045777,13.4993867 L0.563742111,12.4246005 L1.79078454,9.55444199 L4.49743581,9.99777437 L3.481362,7.46080874 L6.02174019,5.66839937 Z M13.3482602,4 L16.3367074,4.85083103 L13.2897614,10.3888233 L10.7576473,10.3888233 L7.66349223,4.85113166 L10.6610576,4.00068865 L12.0205878,6.38806715 L13.3482602,4 Z" id="Combined-Shape" fill="#FFFFFF"></path>
    </g>
</svg>