<?xml version="1.0" encoding="UTF-8"?>
<svg width="16px" height="16px" viewBox="0 0 16 16" version="1.1" xmlns="http://www.w3.org/2000/svg" xmlns:xlink="http://www.w3.org/1999/xlink">
    <title>guide-icons/CONFIG CENTER-16px</title>
    <g id="guide-icons/CONFIG-CENTER-16px" stroke="none" stroke-width="1" fill="none" fill-rule="evenodd">
        <path d="M2,0 L14,0 C15.1045695,0 16,0.8954305 16,2 L16,14 C16,15.1045695 15.1045695,16 14,16 L2,16 C0.8954305,16 0,15.1045695 0,14 L0,2 C0,0.8954305 0.8954305,0 2,0 Z" id="Rectangle" fill="#272C47"></path>
        <path d="M6.41150964,10.0281353 L7.42331418,10.5227717 L7.58295074,13.34 L6.21979619,13.0942674 L6.14064972,11.8746911 L5.14588608,12.5696104 L4.11717219,11.6458488 L6.41150964,10.0281353 Z M9.58145222,10.0369553 L11.8945954,11.6453267 L10.8621626,12.5707144 L9.85462459,11.8822348 L9.78852024,13.0959218 L8.42893378,13.3397181 L8.56964768,10.5315917 L9.58145222,10.0369553 Z M2.7388431,7.24361249 L5.43700234,8.01272939 L5.69023777,9.1121606 L3.60637685,11.0094489 L2.93904339,9.79297345 L3.8349121,8.96376902 L2.67,8.62627243 L2.7388431,7.24361249 Z M13.2722365,7.24268885 L13.34,8.62926907 L12.1721742,8.98074233 L13.0715519,9.79610784 L12.4049626,11.0085854 L10.3162504,9.13176496 L10.5694858,8.03233375 L13.2722365,7.24268885 Z M8.07101207,7.10332324 C8.65754547,7.10332324 9.13302473,7.57990703 9.13302473,8.16780294 C9.13302473,8.75569885 8.65754547,9.23228265 8.07101207,9.23228265 C7.48447867,9.23228265 7.00899941,8.75569885 7.00899941,8.16780294 C7.00899941,7.57990703 7.48447867,7.10332324 8.07101207,7.10332324 Z M10.663159,3.41111396 L11.7949862,4.21125558 L11.3523401,5.3500263 L12.5470635,5.14166468 L13.0899012,6.41464014 L10.3284345,6.90890522 L9.61998605,6.03201198 L10.663159,3.41111396 Z M5.34716532,3.41174255 L6.40365026,6.01637578 L5.69520183,6.89326902 L2.92063035,6.41543696 L3.46615296,5.13941234 L4.669485,5.33651052 L4.21775552,4.20861789 L5.34716532,3.41174255 Z M8.60441403,2.67 L9.93302783,3.04826529 L8.57840641,5.51036437 L7.45267071,5.51036437 L6.07706092,3.04839895 L7.40972854,2.67030616 L8.014153,3.73169485 L8.60441403,2.67 Z" id="Combined-Shape" fill="#FFFFFF"></path>
    </g>
</svg>