<?xml version="1.0" encoding="UTF-8"?>
<svg width="16px" height="16px" viewBox="0 0 16 16" version="1.1" xmlns="http://www.w3.org/2000/svg" xmlns:xlink="http://www.w3.org/1999/xlink">
    <title>guide-icons/FAQ-16px</title>
    <g id="Symbols" stroke="none" stroke-width="1" fill="none" fill-rule="evenodd">
        <g id="guide-icons/FAQ-16px">
            <path d="M2,0 L14,0 C15.1045695,0 16,0.8954305 16,2 L16,14 C16,15.1045695 15.1045695,16 14,16 L2,16 C0.8954305,16 0,15.1045695 0,14 L0,2 C0,0.8954305 0.8954305,0 2,0 Z" id="Rectangle" fill="#FFA938"></path>
            <path d="M8.005,2.67 C10.93925,2.67 13.34,5.07075 13.34,8.005 C13.34,10.93925 10.93925,13.34 8.005,13.34 C5.07075,13.34 2.67,10.93925 2.67,8.005 C2.67,5.07075 5.07075,2.67 8.005,2.67 Z M8.005,10.005625 C7.604875,10.005625 7.338125,10.272375 7.338125,10.6725 C7.338125,11.072625 7.604875,11.339375 8.005,11.339375 C8.405125,11.339375 8.671875,11.072625 8.671875,10.6725 C8.671875,10.272375 8.405125,10.005625 8.005,10.005625 Z M8.005,4.670625 C7.31728516,4.670625 6.68818237,5.02229736 6.33748688,5.56079567 L6.271125,5.6709375 L5.9376875,6.271125 L7.071375,6.938 L7.4048125,6.3378125 C7.5381875,6.13775 7.73825,6.004375 8.005,6.004375 C8.405125,6.004375 8.671875,6.271125 8.671875,6.67125 C8.671875,6.8713125 8.6051875,6.938 8.27175,7.1380625 L8.13434997,7.23237637 C7.78307425,7.48279754 7.3906334,7.85156844 7.34295047,8.53165058 L7.338125,8.671875 L7.338125,9.33875 L8.671875,9.33875 L8.671875,8.671875 C8.671875,8.5385 8.671875,8.4718125 9.0053125,8.27175 L9.13738467,8.18261295 C9.52514249,7.9148518 10.005625,7.50659868 10.005625,6.67125 C10.005625,5.5375625 9.1386875,4.670625 8.005,4.670625 Z" id="Path" fill="#FFFFFF"></path>
        </g>
    </g>
</svg>