<?xml version="1.0" encoding="UTF-8"?>
<svg width="32px" height="32px" viewBox="0 0 32 32" version="1.1" xmlns="http://www.w3.org/2000/svg" xmlns:xlink="http://www.w3.org/1999/xlink">
    <title>guide-icons/FAQ</title>
    <g id="Symbols" stroke="none" stroke-width="1" fill="none" fill-rule="evenodd">
        <g id="guide-icons/FAQ" fill="#FFFFFF">
            <path d="M12.5,3.5 C19.375,3.5 25,9.125 25,16 C25,22.875 19.375,28.5 12.5,28.5 C5.625,28.5 0,22.875 0,16 C0,9.125 5.625,3.5 12.5,3.5 Z M12.5,20.6875 C11.5625,20.6875 10.9375,21.3125 10.9375,22.25 C10.9375,23.1875 11.5625,23.8125 12.5,23.8125 C13.4375,23.8125 14.0625,23.1875 14.0625,22.25 C14.0625,21.3125 13.4375,20.6875 12.5,20.6875 Z M12.5,8.1875 C10.8886719,8.1875 9.41467285,9.01147461 8.59298706,10.2731857 L8.4375,10.53125 L7.65625,11.9375 L10.3125,13.5 L11.09375,12.09375 C11.40625,11.625 11.875,11.3125 12.5,11.3125 C13.4375,11.3125 14.0625,11.9375 14.0625,12.875 C14.0625,13.34375 13.90625,13.5 13.125,13.96875 L12.8030693,14.1897291 C11.980024,14.7764703 11.0605281,15.6405071 10.9488062,17.2339517 L10.9375,17.5625 L10.9375,19.125 L14.0625,19.125 L14.0625,17.5625 C14.0625,17.25 14.0625,17.09375 14.84375,16.625 L15.1531974,16.4161503 C16.0617209,15.7887812 17.1875,14.8322368 17.1875,12.875 C17.1875,10.21875 15.15625,8.1875 12.5,8.1875 Z" id="Path"></path>
        </g>
    </g>
</svg>