<?xml version="1.0" encoding="UTF-8"?>
<svg width="32px" height="32px" viewBox="0 0 32 32" version="1.1" xmlns="http://www.w3.org/2000/svg" xmlns:xlink="http://www.w3.org/1999/xlink">
    <!-- Generator: Sketch 54.1 (76490) - https://sketchapp.com -->
    <title>guide-icons/git</title>
    <desc>Created with Sketch.</desc>
    <g id="Support" stroke="none" stroke-width="1" fill="none" fill-rule="evenodd">
        <g id="Desktop-HD" transform="translate(-473.000000, -649.000000)" fill="#FFFFFF" fill-rule="nonzero">
            <g id="section-get-started" transform="translate(168.000000, 528.000000)">
                <g id="git-basics" transform="translate(281.000000, 0.000000)">
                    <g id="guide-icons/git" transform="translate(24.000000, 121.000000)">
                        <path d="M29.4105263,14.6 L17.4,2.58947368 C17.0315789,2.22105263 16.5157895,2 16,2 C16,2 16,2 16,2 C15.4842105,2 14.9684211,2.22105263 14.6,2.58947368 L12.0210526,5.16842105 L15.0421053,8.18947368 C15.3368421,8.04210526 15.6315789,7.96842105 16,7.96842105 C17.2526316,7.96842105 18.2105263,8.92631579 18.2105263,10.1789474 C18.2105263,10.5473684 18.1368421,10.8421053 17.9894737,11.1368421 L20.9368421,14.0842105 C21.2315789,13.9368421 21.5263158,13.8631579 21.8947368,13.8631579 C23.1473684,13.8631579 24.1052632,14.8210526 24.1052632,16.0736842 C24.1052632,17.3263158 23.1473684,18.2842105 21.8947368,18.2842105 C20.6421053,18.2842105 19.6842105,17.3263158 19.6842105,16.0736842 C19.6842105,15.7052632 19.7578947,15.4105263 19.9052632,15.1157895 L16.9578947,12.1684211 C16.8842105,12.1684211 16.8105263,12.2421053 16.7368421,12.2421053 L16.7368421,19.9052632 C17.6210526,20.2 18.2105263,21.0105263 18.2105263,21.9684211 C18.2105263,23.2210526 17.2526316,24.1789474 16,24.1789474 C14.7473684,24.1789474 13.7894737,23.2210526 13.7894737,21.9684211 C13.7894737,21.0105263 14.3789474,20.2 15.2631579,19.9052632 L15.2631579,12.1684211 C14.3789474,11.8736842 13.7894737,11.0631579 13.7894737,10.1052632 C13.7894737,9.73684211 13.8631579,9.44210526 14.0105263,9.14736842 L10.9894737,6.12631579 L2.58947368,14.6 C2.22105263,14.9684211 2,15.4842105 2,16 C2,16.5157895 2.22105263,17.0315789 2.58947368,17.4 L14.6,29.4105263 C14.6,29.4105263 14.6,29.4105263 14.6,29.4105263 C14.9684211,29.7789474 15.4842105,30 16,30 C16.5157895,30 17.0315789,29.7789474 17.4,29.4105263 L29.4105263,17.4 C29.7789474,17.0315789 30,16.5157895 30,16 C30,15.4842105 29.7789474,14.9684211 29.4105263,14.6 Z" id="Path"></path>
                    </g>
                </g>
            </g>
        </g>
    </g>
</svg>