<?xml version="1.0" encoding="UTF-8"?>
<svg width="16px" height="19px" viewBox="0 0 16 19" version="1.1" xmlns="http://www.w3.org/2000/svg" xmlns:xlink="http://www.w3.org/1999/xlink">
    <title>Icon-Environment</title>
    <g id="环境" stroke="none" stroke-width="1" fill="none" fill-rule="evenodd">
        <g id="#-1-1-环境管理/环境列表" transform="translate(-20.000000, -335.000000)" fill="#23334A" fill-rule="nonzero">
            <g id="Icon-Environment" transform="translate(20.000000, 335.000000)">
                <path d="M7.98061993,18.2526994 C7.88149108,18.2544233 7.78415473,18.2260335 7.70155016,18.1712034 L0.294573415,13.8921336 C0.113991102,13.7964924 0.0018511568,13.6080973 0.00384878069,13.4037616 L0.00384878069,4.84562202 C0.0018511568,4.64128623 0.113991102,4.45289112 0.294573415,4.35724992 L7.70155016,0.0781801554 C7.87716941,-0.0260600518 8.09569835,-0.0260600518 8.2713176,0.0781801554 L15.6782943,4.35724992 C15.8525427,4.45784153 15.9591651,4.64443073 15.9573866,4.84562202 L15.9573866,13.4037616 C15.9591651,13.6049528 15.8525427,13.791542 15.6782943,13.8921336 L8.2713176,18.1712034 C8.18451904,18.2263047 8.08341134,18.2546148 7.98061993,18.2526994 Z M1.15503853,13.0665522 L7.98061993,17.0200406 L14.8178292,13.0665522 L14.8178292,5.18283132 L7.98061993,1.24097085 L1.15503853,5.18283132 L1.15503853,13.0665522 Z" id="形状"></path>
                <line x1="0.573643182" y1="4.84562202" x2="7.98061993" y2="9.04329643" id="路径"></line>
                <path d="M7.98061993,9.6130951 C7.88168336,9.61348575 7.78474668,9.58521255 7.70155016,9.53166853 L0.294573415,5.34562202 C0.161392299,5.27215895 0.0631122241,5.14849576 0.0216160176,5.00216703 C-0.0198801889,4.8558383 -0.00114747194,4.69899239 0.0736431824,4.56655225 C0.235390593,4.29288225 0.584161822,4.19543147 0.864340857,4.34562202 L8.25968969,8.54329643 C8.48917652,8.66865157 8.60387542,8.93412483 8.53786909,9.1871491 C8.47186276,9.44017337 8.24209785,9.6157865 7.98061993,9.6130951 Z" id="路径"></path>
                <line x1="15.1899223" y1="4.93864527" x2="7.78294551" y2="9.12469178" id="路径"></line>
                <path d="M7.84108504,9.69449044 C7.57960712,9.69718185 7.34984221,9.52156871 7.28383588,9.26854445 C7.21782955,9.01552018 7.33252845,8.75004692 7.56201528,8.62469178 L14.9108525,4.43864527 C15.0432926,4.36385462 15.2001385,4.3451219 15.3464673,4.38661811 C15.492796,4.42811431 15.6164592,4.52639439 15.6899223,4.6595755 C15.8389691,4.93629236 15.7411129,5.28136404 15.468992,5.43864527 L8.06201528,9.62469178 C7.99379827,9.66253403 7.91866328,9.68626087 7.84108504,9.69449044 L7.84108504,9.69449044 Z" id="路径"></path>
                <path d="M7.98061993,17.973529 C7.66594606,17.973529 7.41085248,17.7184354 7.41085248,17.4037616 L7.41085248,8.89213364 C7.41085248,8.57103786 7.67115205,8.31073829 7.99224783,8.31073829 C8.31334362,8.31073829 8.57364338,8.57103786 8.57364338,8.89213364 L8.57364338,17.4037616 C8.57377254,17.5589903 8.51056189,17.7075518 8.39862569,17.8150984 C8.28668949,17.9226449 8.13571934,17.9798649 7.98061993,17.973529 Z" id="路径"></path>
            </g>
        </g>
    </g>
</svg>