<?xml version="1.0" encoding="UTF-8"?>
<svg width="42px" height="41px" viewBox="0 0 42 41" version="1.1" xmlns="http://www.w3.org/2000/svg" xmlns:xlink="http://www.w3.org/1999/xlink">
    <title>分组 43</title>
    <g id="OA-Help-Center" stroke="none" stroke-width="1" fill="none" fill-rule="evenodd">
        <g id="Desktop-HD" transform="translate(-746.000000, -397.000000)" fill-rule="nonzero">
            <g id="Group-5" transform="translate(168.000000, 375.000000)">
                <g id="Group-4" transform="translate(577.000000, 20.000000)">
                    <g id="Icon">
                        <g id="分组-43" transform="translate(1.833333, 2.750000)">
                            <path d="M31.1812314,0.918479981 L0.945457655,0.978051586 L0.945457655,24.7883669 L0.925571761,30.5116238 L7.20272564,22.9068009 L31.1146162,22.9250206 L31.1812314,0.918479981 Z" id="矩形" stroke="#334966" stroke-width="1.83333333"></path>
                            <path d="M39.4312313,7.33520005 L10.1121243,7.39466522 L10.1121243,31.2050336 L10.0922384,36.9282905 L16.3694029,29.3234548 L39.3646163,29.3416601 L39.4312313,7.33520005 Z" id="矩形-copy-31" stroke="#334966" stroke-width="1.83333333" transform="translate(24.758675, 22.953147) scale(-1, 1) translate(-24.758675, -22.953147) "></path>
                            <rect id="矩形" fill="#00A4FF" x="9.16666667" y="6.41666667" width="21.0833333" height="15.5833333"></rect>
                            <path d="M14.6666667,11.9166667 L12.8333333,11.9166667 L12.8326667,8.24966667 L9.16666667,8.25 L9.16666667,6.41666667 L14.6666667,6.41666667 L14.6666667,11.9166667 Z" id="合并形状" fill="#334966" transform="translate(11.916667, 9.166667) rotate(-90.000000) translate(-11.916667, -9.166667) "></path>
                        </g>
                    </g>
                </g>
            </g>
        </g>
    </g>
</svg>