<?xml version="1.0" encoding="UTF-8"?>
<svg width="96px" height="96px" viewBox="0 0 96 96" version="1.1" xmlns="http://www.w3.org/2000/svg" xmlns:xlink="http://www.w3.org/1999/xlink">
    <!-- Generator: Sketch 54.1 (76490) - https://sketchapp.com -->
    <title>contact-bg/phone-support</title>
    <desc>Created with Sketch.</desc>
    <g id="Support" stroke="none" stroke-width="1" fill="none" fill-rule="evenodd" opacity="0.049999997">
        <g id="Desktop-HD" transform="translate(-820.000000, -2965.000000)" fill="#0066FF" fill-rule="nonzero">
            <g id="section-contact" transform="translate(168.000000, 2765.000000)">
                <g id="phone-support" transform="translate(376.000000, 140.000000)">
                    <g id="background">
                        <g id="contact-bg/phone-support" transform="translate(276.000000, 60.000000)">
                            <path d="M78.6666667,4 L17.3333333,4 C8.86496717,4 2,10.8519899 2,19.3043478 L2,26.9565217 C2,29.0696112 3.71624179,30.7826087 5.83333333,30.7826087 L25,30.7826087 C27.1170915,30.7826087 28.8333333,29.0696112 28.8333333,26.9565217 L28.8333333,19.3043478 L67.1666667,19.3043478 L67.1666667,26.9565217 C67.1666667,29.0696112 68.8829085,30.7826087 71,30.7826087 L90.1666667,30.7826087 C92.2837582,30.7826087 94,29.0696112 94,26.9565217 L94,19.3043478 C94,10.8519899 87.1350328,4 78.6666667,4 Z" id="Path"></path>
                            <path d="M89.2428333,66.5565217 L66.2428333,39.773913 C65.5153605,38.9250098 64.4525226,38.4358266 63.3333309,38.4347826 L32.6666667,38.4347826 C31.5474774,38.4358266 30.4846395,38.9250098 29.7571667,39.773913 L6.75716667,66.5565217 C6.16019111,67.2479927 5.83229065,68.1306997 5.83333333,69.0434783 L5.83333333,88.173913 C5.83333333,90.2870025 7.54957513,92 9.66666667,92 L86.3333333,92 C88.4504249,92 90.1666667,90.2870025 90.1666667,88.173913 L90.1666667,69.0434783 C90.1677093,68.1306997 89.8398089,67.2479927 89.2428333,66.5565217 Z M48,76.6956522 C41.6487254,76.6956522 36.5,71.5566597 36.5,65.2173913 C36.5,58.8781229 41.6487254,53.7391304 48,53.7391304 C54.3512746,53.7391304 59.5,58.8781229 59.5,65.2173913 C59.5,71.5566597 54.3512746,76.6956522 48,76.6956522 Z" id="Shape"></path>
                        </g>
                    </g>
                </g>
            </g>
        </g>
    </g>
</svg>