<?xml version="1.0" encoding="UTF-8"?>
<svg width="32px" height="32px" viewBox="0 0 32 32" version="1.1" xmlns="http://www.w3.org/2000/svg" xmlns:xlink="http://www.w3.org/1999/xlink">
    <title>guide-icons/QTA</title>
    <g id="Symbols" stroke="none" stroke-width="1" fill="none" fill-rule="evenodd">
        <g id="guide-icons/QTA" fill="#FFFFFF">
            <path d="M14.255913,17.0571159 C18.6920643,17.7736494 21.9831095,21.723816 19.9818485,25.7634858 C13.0641153,30.1864549 7.74702164,26.7396271 6.95642717,26.418516 C7.49234282,26.3279221 8.73050325,26.0615173 10.5998341,24.8642174 C5.02649343,26.7487068 1.98797713,22.3561216 1.07627807,17.7219359 C3.56812904,21.0425105 8.84543626,23.7533012 16.1078167,19.9154386 C16.7831494,18.8305948 15.0928196,17.5423967 14.255913,17.0571159 Z M17.9310631,4.89187111 C25.2065961,8.69389687 24.8828412,15.0344024 25,15.8815768 C24.6541386,15.4611979 23.8057994,14.5184586 21.8379509,13.4921001 C26.2489354,17.3934951 23.9700545,22.2264699 20.42084,25.3320997 C22.0461406,21.5093276 21.7537999,15.5709656 14.8118104,11.177442 C13.5372529,11.1323226 13.2680051,13.2440068 13.2663863,14.2134525 C11.6709066,10.0013449 13.4412393,5.16991718 17.9310631,4.89187111 Z M17.3571315,4.73018693 C13.2458228,5.25422122 8.28195085,8.50624177 8.0061015,16.7333163 C8.61094155,17.8591709 10.5645752,17.0257174 11.3998124,16.5374439 C8.58013424,20.0453693 3.52738144,20.9532862 1.02053151,17.2079957 C0.618721237,8.9912436 6.23989165,6.06933776 6.90991269,5.54002813 C6.72274184,6.05163493 6.33969924,7.26194566 6.45010475,9.48337221 C7.58059135,3.69566178 12.8914376,3.22699322 17.3571315,4.73018693 Z" id="Combined-Shape"></path>
        </g>
    </g>
</svg>