<?xml version="1.0" encoding="UTF-8"?>
<svg width="32px" height="32px" viewBox="0 0 32 32" version="1.1" xmlns="http://www.w3.org/2000/svg" xmlns:xlink="http://www.w3.org/1999/xlink">
    <title>guide-icons/quick-started</title>
    <g id="Symbols" stroke="none" stroke-width="1" fill="none" fill-rule="evenodd">
        <g id="guide-icons/quick-started" fill="#FFFFFF" fill-rule="nonzero">
            <path d="M3,25 C3,24.448 3.448,24 4,24 L19,24 C20.105,24 21,23.105 21,22 L21,7 C21,5.343 19.657,4 18,4 L11,4 L11,12 L8,10 L5,12 L5,4 L4,4 C2.343,4 1,5.343 1,7 L1,25 C1,26.657 2.343,28 4,28 L20,28 C20.552,28 21,27.552 21,27 C21,26.448 20.552,26 20,26 L4,26 C3.448,26 3,25.552 3,25 Z" id="Path"></path>
        </g>
    </g>
</svg>