<?xml version="1.0" encoding="UTF-8"?>
<svg width="18px" height="18px" viewBox="0 0 18 18" version="1.1" xmlns="http://www.w3.org/2000/svg" xmlns:xlink="http://www.w3.org/1999/xlink">
    <!-- Generator: Sketch 54.1 (76490) - https://sketchapp.com -->
    <title>icons/wechat</title>
    <desc>Created with Sketch.</desc>
    <g id="Support" stroke="none" stroke-width="1" fill="none" fill-rule="evenodd">
        <g id="Desktop-HD" transform="translate(-370.000000, -3004.000000)" fill="#32BE77" fill-rule="nonzero">
            <g id="section-contact" transform="translate(168.000000, 2765.000000)">
                <g id="online-support" transform="translate(0.000000, 140.000000)">
                    <g id="button-wechat" transform="translate(176.000000, 88.000000)">
                        <g id="icons/wechat" transform="translate(26.000000, 11.000000)">
                            <path d="M10.2515625,10.7511521 C9.71015625,10.7511521 9.27070313,10.2866359 9.27070313,9.7078341 C9.27070313,9.13456221 9.71191406,8.66820276 10.2515625,8.66820276 C10.7929688,8.66820276 11.2324219,9.13271889 11.2324219,9.7078341 C11.2341797,10.2866359 10.7929688,10.7511521 10.2515625,10.7511521 Z M18,11.4958525 C18,8.81935484 15.7271484,6.62764977 12.8478516,6.43963134 C12.7125,6.43225806 12.5771484,6.42672811 12.4435547,6.42672811 C9.37265625,6.42672811 6.88535156,8.69769585 6.88535156,11.4976959 C6.88535156,11.9198157 6.94335938,12.3290323 7.05058594,12.7198157 C7.64824219,14.9299539 9.83496094,16.5686636 12.4435547,16.5686636 C13.33125,16.5686636 14.1679688,16.3806452 14.9115234,16.0414747 L16.1595703,16.9354839 C16.1595703,16.9354839 16.4917969,17.1788018 16.4601563,16.7105991 L16.1068359,15.3115207 C17.2669922,14.3788018 18,13.0165899 18,11.4958525 Z M12.4435547,6.00276498 C12.5630859,6.00276498 12.6808594,6.00829493 12.7986328,6.01382488 C12.3398437,3.18064516 9.66445312,1.00368664 6.43183594,1.00368664 C2.87929687,1.00368664 0,3.63410138 0,6.87281106 C0,8.67926267 0.894726562,10.2940092 2.29921875,11.3723502 L1.82460937,13.2525346 C1.82460937,13.2525346 1.66289063,13.875576 2.278125,13.5953917 L4.05,12.3271889 C4.78828125,12.5981567 5.58984375,12.7474654 6.43183594,12.7474654 C6.50390625,12.7474654 6.57421875,12.7419355 6.64453125,12.7419355 C6.54257812,12.3400922 6.48632812,11.9235023 6.48632812,11.4958525 C6.48808594,8.46728111 9.15996094,6.00276498 12.4435547,6.00276498 Z M14.9853516,10.7511521 C14.4439453,10.7511521 14.0044922,10.2866359 14.0044922,9.7078341 C14.0044922,9.13456221 14.4457031,8.66820276 14.9853516,8.66820276 C15.5267578,8.66820276 15.9662109,9.13271889 15.9662109,9.7078341 C15.9662109,10.2866359 15.525,10.7511521 14.9853516,10.7511521 Z M3.4171875,6.07096774 C2.87578125,6.07096774 2.43632813,5.60645161 2.43632813,5.02764977 C2.43632813,4.45437788 2.87753906,3.98801843 3.4171875,3.98801843 C3.95859375,3.98801843 4.39804688,4.45253456 4.39804688,5.02764977 C4.39804688,5.60645161 3.95859375,6.07096774 3.4171875,6.07096774 L3.4171875,6.07096774 Z M9.22675781,6.06912442 C8.68535156,6.06912442 8.24589844,5.60460829 8.24589844,5.02580645 C8.24589844,4.45253456 8.68710938,3.98617512 9.22675781,3.98617512 C9.76816406,3.98617512 10.2076172,4.45069124 10.2076172,5.02580645 C10.2076172,5.60460829 9.76640625,6.06912442 9.22675781,6.06912442 Z" id="Shape"></path>
                        </g>
                    </g>
                </g>
            </g>
        </g>
    </g>
</svg>