<?xml version="1.0" encoding="UTF-8"?>
<svg width="21px" height="24px" viewBox="0 0 21 24" version="1.1" xmlns="http://www.w3.org/2000/svg" xmlns:xlink="http://www.w3.org/1999/xlink">
    <title>yunqi</title>
    <g id="页面-1" stroke="none" stroke-width="1" fill="none" fill-rule="evenodd">
        <g id="画板" transform="translate(-2.000000, 0.000000)" stroke="#FFFFFF">
            <g id="编组" transform="translate(-4.000000, -4.000000)">
                <path d="M18.778018,5.87258012 L26.1329049,13.0514295 C26.1953507,13.1138752 26.2202178,13.2046338 26.1983229,13.2901882 L26.1983229,13.2901882 L23.6047581,23.4245455 C23.5934364,23.468785 23.570503,23.5081773 23.5393402,23.5393402 C23.5081773,23.570503 23.468785,23.5934364 23.4245455,23.6047581 L23.4245455,23.6047581 L13.2901882,26.1983229 C13.2046338,26.2202178 13.1138752,26.1953507 13.0514295,26.1329049 L13.0514295,26.1329049 L5.93744047,19.0189159 C5.87443677,18.9559122 5.84972712,18.8641381 5.87258012,18.778018 L5.87258012,18.778018 L8.54178132,8.7192971 C8.55329083,8.67592421 8.57598333,8.63730002 8.60664167,8.60664167 C8.63730002,8.57598333 8.67592421,8.55329083 8.7192971,8.54178132 L8.7192971,8.54178132 L18.778018,5.87258012 Z" id="矩形" stroke-width="1.5" transform="translate(16.033097, 16.033097) rotate(-315.000000) translate(-16.033097, -16.033097) "></path>
                <path d="M23.9787076,11.5000885 L24.0420713,11.5086438 C24.2252704,11.6795073 24.2339725,11.7407881 24.2227624,11.797941 C24.2129375,11.848032 24.1880752,11.895104 24.1497443,11.9314157 L24.1497443,11.9314157 L16.1391324,16.5657111 L16.1137459,25.8751252 C16.1137459,25.9441608 16.0857637,26.0066608 16.0405226,26.0519019 C15.9952815,26.097143 15.9327815,26.1251252 15.8637459,26.1251252 C15.7947103,26.1251252 15.7322103,26.097143 15.6869692,26.0519019 C15.6417281,26.0066608 15.6137459,25.9441608 15.6137459,25.8750837 L15.6137459,25.8750837 L15.6129761,16.6061778 L7.62512523,11.9666316 C7.56533865,11.9321138 7.52520317,11.8766305 7.50864377,11.81483 C7.49208438,11.7530295 7.49910108,11.6849118 7.53361888,11.6251252 C7.56813668,11.5653387 7.62361998,11.5252032 7.68542047,11.5086438 C7.74722096,11.4920844 7.81533865,11.4991011 7.87515241,11.5336346 L7.87515241,11.5336346 L15.8640082,16.1453341 L23.8523666,11.5336189 C23.9121531,11.4991011 23.9802708,11.4920844 24.0420713,11.5086438 Z" id="形状结合"></path>
            </g>
        </g>
    </g>
</svg>