<?xml version="1.0" encoding="UTF-8"?>
<svg width="24px" height="24px" viewBox="0 0 24 24" version="1.1" xmlns="http://www.w3.org/2000/svg" xmlns:xlink="http://www.w3.org/1999/xlink">
    <title>CI</title>
    <g id="Symbols" stroke="none" stroke-width="1" fill="none" fill-rule="evenodd">
        <g id="CI">
            <rect id="Rectangle" fill="#2474F0" x="0" y="0" width="24" height="24"></rect>
            <path d="M14.9996732,13.7603797 L14.9996732,12.0006618 L19.2448095,14.4907179 L19.2451905,16.25 L12,20.5 L6.47157491,17.2572355 C6.32328499,17.3070903 6.16474403,17.3340742 6,17.3340742 C5.17157288,17.3340742 4.5,16.6517466 4.5,15.810053 C4.5,14.9683593 5.17157288,14.2860318 6,14.2860318 C6.82842712,14.2860318 7.5,14.9683593 7.5,15.810053 C7.5,15.9041878 7.49159989,15.9963292 7.4755197,16.0857456 L12,18.7402119 L17.7441429,15.370359 L14.9996732,13.7603797 Z M12.75,9.71396821 L12.75,14.2860318 L11.25,14.2860318 L11.25,9.71396821 L12.75,9.71396821 Z M12,3.5 L17.5284251,6.74276455 C17.676715,6.69290966 17.835256,6.66592583 18,6.66592583 C18.8284271,6.66592583 19.5,7.34825336 19.5,8.18994702 C19.5,9.03164068 18.8284271,9.71396821 18,9.71396821 C17.1715729,9.71396821 16.5,9.03164068 16.5,8.18994702 C16.5,8.09565893 16.5084275,8.00337072 16.5245589,7.91381752 L12,5.25978809 L6.25810177,8.62768743 L8.9996732,10.236149 L8.9996732,11.995431 L5.50810177,9.94752849 L5.50885714,9.94561538 L4.75480947,9.50361538 L4.75480947,7.75 L12,3.5 Z" id="Shape" fill="#FFFFFF" fill-rule="nonzero"></path>
        </g>
    </g>
</svg>