<?xml version="1.0" encoding="UTF-8"?>
<svg width="32px" height="32px" viewBox="0 0 32 32" version="1.1" xmlns="http://www.w3.org/2000/svg" xmlns:xlink="http://www.w3.org/1999/xlink">
    <title>guide-icons/CODING-CI</title>
    <g id="Symbols" stroke="none" stroke-width="1" fill="none" fill-rule="evenodd">
        <g id="guide-icons/CODING-CI" fill="#FFFFFF" fill-rule="nonzero">
            <path d="M17.3995207,18.6923455 L17.3995207,16.0010121 L23.6257206,19.8093333 L23.6262794,22.5 L13,29 L4.8916432,24.0404777 C4.67415131,24.1167264 4.44162458,24.1579958 4.2,24.1579958 C2.98497355,24.1579958 2,23.114436 2,21.8271398 C2,20.5398437 2.98497355,19.4962839 4.2,19.4962839 C5.41502645,19.4962839 6.4,20.5398437 6.4,21.8271398 C6.4,21.9711107 6.38767983,22.1120328 6.36409556,22.2487874 L13,26.3085594 L21.4247429,21.1546667 L17.3995207,18.6923455 Z M14.1,12.5037161 L14.1,19.4962839 L11.9,19.4962839 L11.9,12.5037161 L14.1,12.5037161 Z M13,3 L21.1083568,7.95952225 C21.3258487,7.8832736 21.5583754,7.84200421 21.8,7.84200421 C23.0150264,7.84200421 24,8.88556396 24,10.1728602 C24,11.4601563 23.0150264,12.5037161 21.8,12.5037161 C20.5849736,12.5037161 19.6,11.4601563 19.6,10.1728602 C19.6,10.0286548 19.6123603,9.88750815 19.6360198,9.75054444 L13,5.69144061 L4.57854926,10.8423455 L8.59952069,13.3023455 L8.59952069,15.9930121 L3.47854926,12.8609259 L3.47965714,12.858 L2.37372056,12.182 L2.37372056,9.5 L13,3 Z" id="Shape"></path>
        </g>
    </g>
</svg>