<?xml version="1.0" encoding="UTF-8"?>
<svg width="16px" height="16px" viewBox="0 0 16 16" version="1.1" xmlns="http://www.w3.org/2000/svg" xmlns:xlink="http://www.w3.org/1999/xlink">
    <title>Artifact Repositories</title>
    <defs>
        <path d="M13.559633,4 L6.12844037,4 C5.88486239,4 5.68807339,4.18940397 5.68807339,4.42384106 L5.68807339,7.54966887 L2.44036697,7.54966887 C2.19678899,7.54966887 2,7.73907285 2,7.97350993 L2,11.5761589 C2,11.810596 2.19678899,12 2.44036697,12 L9.87155963,12 C10.1151376,12 10.3119266,11.810596 10.3119266,11.5761589 L10.3119266,8.45033113 L13.559633,8.45033113 C13.803211,8.45033113 14,8.26092715 14,8.02649007 L14,4.42384106 C14,4.18940397 13.803211,4 13.559633,4 Z M6.8,5.14285714 L9.2,5.14285714 L9.2,7.42857143 L6.8,7.42857143 L6.8,5.14285714 Z M5.6,10.8571429 L3.2,10.8571429 L3.2,8.57142857 L5.6,8.57142857 L5.6,10.8571429 Z M9.2,10.8571429 L6.8,10.8571429 L6.8,8.57142857 L9.2,8.57142857 L9.2,10.8571429 Z M12.8,7.42857143 L10.4,7.42857143 L10.4,5.14285714 L12.8,5.14285714 L12.8,7.42857143 Z" id="path-1"></path>
    </defs>
    <g id="Symbols" stroke="none" stroke-width="1" fill="none" fill-rule="evenodd">
        <g id="guide-icons/Artifact-Repositories-16px">
            <path d="M2,0 L14,0 C15.1045695,0 16,0.8954305 16,2 L16,14 C16,15.1045695 15.1045695,16 14,16 L2,16 C0.8954305,16 0,15.1045695 0,14 L0,2 C0,0.8954305 0.8954305,0 2,0 Z" id="Rectangle" fill="#2474F0"></path>
            <mask id="mask-2" fill="white">
                <use xlink:href="#path-1"></use>
            </mask>
            <use id="Mask" fill="#FFFFFF" fill-rule="nonzero" xlink:href="#path-1"></use>
        </g>
    </g>
</svg>