<?xml version="1.0" encoding="UTF-8"?>
<svg width="24px" height="24px" viewBox="0 0 24 24" version="1.1" xmlns="http://www.w3.org/2000/svg" xmlns:xlink="http://www.w3.org/1999/xlink">
    <title>guide-icons/CONFIG CENTER-24px</title>
    <g id="guide-icons/CONFIG-CENTER-24px" stroke="none" stroke-width="1" fill="none" fill-rule="evenodd">
        <rect id="Rectangle" fill="#272C47" x="0" y="0" width="24" height="24"></rect>
        <path d="M9.61051117,15.0337548 L11.1277438,15.7754777 L11.3671239,20 L9.32303084,19.6315163 L9.20434822,17.8027233 L7.7126689,18.8447765 L6.17008013,17.4595671 L9.61051117,15.0337548 Z M14.3639396,15.0469808 L17.8325705,17.4587842 L16.2844049,18.846432 L14.7735701,17.8140353 L14.6744446,19.633997 L12.635702,19.9995773 L12.8467069,15.7887036 L14.3639396,15.0469808 Z M4.1032324,10.8582755 L8.14920688,12.0115905 L8.52894136,13.6602221 L5.40412649,16.5052655 L4.403439,14.6811223 L5.74682226,13.4377042 L4,12.9316175 L4.1032324,10.8582755 Z M19.8983865,10.8568905 L20,12.9361111 L18.2488085,13.4631563 L19.5974536,14.6858224 L18.5978821,16.5039706 L15.4657926,13.6896194 L15.845527,12.0409878 L19.8983865,10.8568905 Z M12.0989872,10.6479074 C12.9785124,10.6479074 13.6915085,11.3625598 13.6915085,12.2441281 C13.6915085,13.1256965 12.9785124,13.8403489 12.0989872,13.8403489 C11.2194619,13.8403489 10.5064658,13.1256965 10.5064658,12.2441281 C10.5064658,11.3625598 11.2194619,10.6479074 12.0989872,10.6479074 Z M15.9859928,5.11132365 L17.6832032,6.31116113 L17.0194416,8.01878358 L18.8109668,7.70633879 L19.624969,9.61520545 L15.4840629,10.3563715 L14.4217223,9.04144251 L15.9859928,5.11132365 Z M8.01449346,5.11226625 L9.59872579,9.01799554 L8.53638513,10.3329245 L4.37582807,9.61640031 L5.19385636,7.70296133 L6.99829054,7.99851625 L6.320908,6.30720583 L8.01449346,5.11226625 Z M12.8988402,4 L14.8911383,4.56722068 L12.8598409,8.25921555 L11.1717649,8.25921555 L9.10899482,4.5674211 L11.1073717,4.0004591 L12.0137252,5.59204476 L12.8988402,4 Z" id="Combined-Shape" fill="#FFFFFF"></path>
    </g>
</svg>