<?xml version="1.0" encoding="UTF-8"?>
<svg width="24px" height="24px" viewBox="0 0 24 24" version="1.1" xmlns="http://www.w3.org/2000/svg" xmlns:xlink="http://www.w3.org/1999/xlink">
    <title>guide-icons/CD-24px</title>
    <g id="Symbols" stroke="none" stroke-width="1" fill="none" fill-rule="evenodd">
        <g id="guide-icons/CD-24px">
            <rect id="Rectangle" fill="#2474F0" x="0" y="0" width="24" height="24"></rect>
            <path d="M8.92382808,17.5425814 C9.02732487,17.7543743 9.23295122,17.8986882 9.469719,17.8986882 L9.50888612,17.8973872 L10.0180397,17.8633951 L10.1446978,18.3982417 C10.3527127,19.2766383 11.087976,19.9026061 11.9382904,19.9026061 C12.7886049,19.9026061 13.5238682,19.2766383 13.731883,18.3982417 L13.8585411,17.8633951 L14.3676947,17.8973872 L14.4068619,17.8986882 C14.6436296,17.8986882 14.849256,17.7543743 14.9527528,17.5425814 L16.7550709,17.5421665 C16.6280934,18.4290931 15.9767599,19.1381969 15.139167,19.318172 C14.6142227,20.6168738 13.380832,21.5 11.977565,21.5 C10.574298,21.5 9.34090722,20.6168738 8.815963,19.318172 C7.9783701,19.1381969 7.32703656,18.4290931 7.20005903,17.5421665 L8.92382808,17.5425814 Z M12.0103091,2.5 L16.8,7.19804557 L16.7992727,16.0084118 L17.8489583,16.0085065 C17.5828079,15.3993117 17.2327128,14.8764636 16.8003554,14.440116 L16.7997174,12.5721748 C18.3414267,13.5524717 19.4525973,14.9999579 19.8176826,16.6951857 L20,17.5417539 L4,17.5417539 L4.18231741,16.6951857 C4.54735065,15.0001994 5.65825674,13.5528841 7.19962369,12.5725938 L7.2,7.19804557 L12.0103091,2.5 Z M6.074375,16.0085065 L7.19927273,16.0082692 L7.19989913,14.3800487 C6.73001459,14.8282209 6.35285133,15.3710989 6.074375,16.0085065 Z M12.0078926,4.72696718 L8.8,7.85999364 L8.8,15.9584114 L15.2,15.9584114 L15.2,7.85799719 L12.0078926,4.72696718 Z M12,8.04169879 C12.8836556,8.04169879 13.6,8.75058538 13.6,9.62504131 C13.6,10.4994972 12.8836556,11.2083838 12,11.2083838 C11.1163444,11.2083838 10.4,10.4994972 10.4,9.62504131 C10.4,8.75058538 11.1163444,8.04169879 12,8.04169879 Z" id="Shape" fill="#FFFFFF" fill-rule="nonzero"></path>
        </g>
    </g>
</svg>