<?xml version="1.0" encoding="UTF-8"?>
<svg width="24px" height="24px" viewBox="0 0 24 24" version="1.1" xmlns="http://www.w3.org/2000/svg" xmlns:xlink="http://www.w3.org/1999/xlink">
    <title>guide-icons/CLOUDLAB ENVIRONMENT-24px</title>
    <g id="Symbols" stroke="none" stroke-width="1" fill="none" fill-rule="evenodd">
        <g id="guide-icons/CLOUDLAB-ENVIRONMENT-24px">
            <rect id="Rectangle" fill="#272C47" x="0" y="0" width="24" height="24"></rect>
            <path d="M12.5773503,3.15369348 L19.4226497,7.08010161 C19.7799153,7.28502625 20,7.66374259 20,8.07359187 L20,15.9264081 C20,16.3362574 19.7799153,16.7149738 19.4226497,16.9198984 L12.5773503,20.8463065 C12.2200847,21.0512312 11.7799153,21.0512312 11.4226497,20.8463065 L4.57735027,16.9198984 C4.22008468,16.7149738 4,16.3362574 4,15.9264081 L4,8.07359187 C4,7.66374259 4.22008468,7.28502625 4.57735027,7.08010161 L11.4226497,3.15369348 C11.7799153,2.94876884 12.2200847,2.94876884 12.5773503,3.15369348 Z M5.73089611,9.36147739 L5.73113078,15.5941267 L11.1649168,18.7110249 L11.1360493,12.4944362 L5.73089611,9.36147739 Z M18.2674799,9.36147739 L12.8681001,12.4921418 L12.8969676,18.674315 L18.2677145,15.5941267 L18.2674799,9.36147739 Z M12,4.8094523 L6.62925313,7.88964065 L11.9997653,11.0030973 L17.3691228,7.88964065 L12,4.8094523 Z" id="Shape" fill="#FFFFFF"></path>
        </g>
    </g>
</svg>