<?xml version="1.0" encoding="UTF-8"?>
<svg width="24px" height="24px" viewBox="0 0 24 24" version="1.1" xmlns="http://www.w3.org/2000/svg" xmlns:xlink="http://www.w3.org/1999/xlink">
    <title>guide-icons/FAQ-24px</title>
    <g id="Symbols" stroke="none" stroke-width="1" fill="none" fill-rule="evenodd">
        <g id="guide-icons/FAQ-24px">
            <rect id="Rectangle" fill="#FFA938" x="0" y="0" width="24" height="24"></rect>
            <path d="M12,4 C16.4,4 20,7.6 20,12 C20,16.4 16.4,20 12,20 C7.6,20 4,16.4 4,12 C4,7.6 7.6,4 12,4 Z M12,15 C11.4,15 11,15.4 11,16 C11,16.6 11.4,17 12,17 C12.6,17 13,16.6 13,16 C13,15.4 12.6,15 12,15 Z M12,7 C10.96875,7 10.0253906,7.52734375 9.49951172,8.33483887 L9.4,8.5 L8.9,9.4 L10.6,10.4 L11.1,9.5 C11.3,9.2 11.6,9 12,9 C12.6,9 13,9.4 13,10 C13,10.3 12.9,10.4 12.4,10.7 L12.1939643,10.8414266 C11.6672154,11.216941 11.078738,11.7699246 11.0072359,12.7897291 L11,13 L11,14 L13,14 L13,13 C13,12.8 13,12.7 13.5,12.4 L13.6980464,12.2663362 C14.2795014,11.8648199 15,11.2526316 15,10 C15,8.3 13.7,7 12,7 Z" id="Path" fill="#FFFFFF"></path>
        </g>
    </g>
</svg>