<?xml version="1.0" encoding="UTF-8"?>
<svg width="24px" height="24px" viewBox="0 0 24 24" version="1.1" xmlns="http://www.w3.org/2000/svg" xmlns:xlink="http://www.w3.org/1999/xlink">
    <title>QTA</title>
    <g id="Symbols" stroke="none" stroke-width="1" fill="none" fill-rule="evenodd">
        <g id="QTA">
            <rect id="Rectangle" fill="#24C2D0" x="0" y="0" width="24" height="24"></rect>
            <path d="M12.8372753,12.7047439 C15.7947096,13.182433 17.9887397,15.8158773 16.6545657,18.5089905 C12.0427435,21.4576366 8.49801442,19.1597514 7.97095145,18.9456773 C8.32822855,18.8852814 9.15366883,18.7076782 10.3998894,17.9094782 C6.68432895,19.1658045 4.65865142,16.2374144 4.05085205,13.1479572 C5.71208602,15.3616737 9.23029084,17.1688675 14.0718778,14.6102924 C14.5220996,13.8870632 13.3952131,13.0282645 12.8372753,12.7047439 Z M15.2873754,4.59458074 C20.1377308,7.12926458 19.9218941,11.3562682 20,11.9210512 C19.7694258,11.6407986 19.2038663,11.0123057 17.8919673,10.3280667 C20.8326236,12.9289967 19.3133697,16.1509799 16.9472267,18.2213998 C18.0307604,15.6728851 17.8358666,11.7139771 13.2078736,8.78496134 C12.3581686,8.75488174 12.17867,10.1626712 12.1775909,10.8089683 C11.1139377,8.00089662 12.2941595,4.77994479 15.2873754,4.59458074 Z M14.9047544,4.48679128 C12.1638819,4.83614748 8.8546339,7.00416118 8.67073433,12.4888776 C9.07396103,13.2394472 10.3763834,12.6838116 10.9332083,12.3582959 C9.05342282,14.6969129 5.68492096,15.3021908 4.01368767,12.8053305 C3.74581416,7.32749573 7.4932611,5.37955851 7.93994179,5.02668542 C7.81516123,5.36775662 7.55979949,6.17463044 7.63340316,7.65558147 C8.3870609,3.79710785 11.927625,3.48466215 14.9047544,4.48679128 Z" id="Combined-Shape" fill="#FFFFFF"></path>
        </g>
    </g>
</svg>