<?xml version="1.0" encoding="UTF-8"?>
<svg width="24px" height="24px" viewBox="0 0 24 24" version="1.1" xmlns="http://www.w3.org/2000/svg" xmlns:xlink="http://www.w3.org/1999/xlink">
    <title>guide-icons/R&amp;D Specifications-24px</title>
    <g id="Symbols" stroke="none" stroke-width="1" fill="none" fill-rule="evenodd">
        <g id="guide-icons/R&amp;D-Specifications-24px">
            <rect id="Rectangle" fill="#FFA938" x="0" y="0" width="24" height="24"></rect>
            <path d="M9,8.83333333 C9,9.20152317 8.70152317,9.5 8.33333333,9.5 L4.66666667,9.5 C4.29847683,9.5 4,9.20152317 4,8.83333333 L4,5.16666667 C4,4.79847683 4.29847683,4.5 4.66666667,4.5 L8.33333333,4.5 C8.70152317,4.5 9,4.79847683 9,5.16666667 L9,6.166 L17,6.166 L17,4 L20,7 L17,10 L17,7.833 L12.666,7.833 L12.666,16 L17,16 L17,13.8333333 L20,16.8333333 L17,19.8333333 L17,17.666 L11.6666667,17.6666667 C11.2984768,17.6666667 11,17.3681898 11,17 L10.999,7.833 L9,7.833 L9,8.83333333 Z" id="Combined-Shape" fill="#FFFFFF"></path>
        </g>
    </g>
</svg>