<?xml version="1.0" encoding="UTF-8"?>
<svg width="28px" height="28px" viewBox="0 0 28 28" version="1.1" xmlns="http://www.w3.org/2000/svg" xmlns:xlink="http://www.w3.org/1999/xlink">
    <title>yunqi-book</title>
    <g id="页面-1" stroke="none" stroke-width="1" fill="none" fill-rule="evenodd">
        <g id="yunqi-book" transform="translate(2.000000, 2.000000)">
            <rect id="矩形" fill="#3D98FF" x="0" y="0" width="24" height="24"></rect>
            <g id="编组" transform="translate(2.000000, 2.000000)" stroke="#FFFFFF">
                <g transform="translate(-3.333333, -3.333333)">
                    <path d="M15.587662,5.03924679 L21.6218728,10.8974199 C21.6843185,10.9598656 21.7091856,11.0506242 21.6872907,11.1361786 L21.6872907,11.1361786 L19.5740157,19.3938031 C19.562694,19.4380426 19.5397606,19.4774349 19.5085978,19.5085978 C19.4774349,19.5397606 19.4380426,19.562694 19.3938031,19.5740157 L19.3938031,19.5740157 L11.1361786,21.6872907 C11.0506242,21.7091856 10.9598656,21.6843185 10.8974199,21.6218728 L10.8974199,21.6218728 L5.10410714,15.82856 C5.04110344,15.7655563 5.01639379,15.6737821 5.03924679,15.587662 L5.03924679,15.587662 L7.21415147,7.39166725 C7.22566098,7.34829435 7.24835348,7.30967016 7.27901182,7.27901182 C7.30967016,7.24835348 7.34829435,7.22566098 7.39166725,7.21415147 L7.39166725,7.21415147 L15.587662,5.03924679 Z" id="矩形" stroke-width="1.5" transform="translate(13.360914, 13.360914) rotate(-315.000000) translate(-13.360914, -13.360914) "></path>
                    <path d="M6.42608531,9.6710303 C6.45698556,9.6627506 6.4910444,9.66625895 6.52089962,9.68349587 L6.52089962,9.68349587 L13.2182769,13.5510137 L19.9186388,9.68351785 C20.0431987,9.73025278 20.1123637,9.76898086 20.1041807,9.81388358 C20.1004361,9.83443148 20.0917203,9.85408576 20.0783212,9.87063454 L20.0783212,9.87063454 L13.3659023,13.7570486 L13.3447882,21.5626044 C13.3447882,21.5971222 13.3307971,21.6283722 13.3081766,21.6509927 C13.285556,21.6736133 13.254306,21.6876044 13.2197882,21.6876044 C13.1852705,21.6876044 13.1540205,21.6736133 13.1313999,21.6509927 C13.1087794,21.6283722 13.0947882,21.5971222 13.0947882,21.562574 L13.0947882,21.562574 L13.0943158,13.7898187 L6.39593769,9.9000242 C6.3660444,9.8827653 6.34597666,9.85502365 6.33769696,9.82412341 C6.32941727,9.79322316 6.33292562,9.75916432 6.35018452,9.72927103 C6.36744342,9.69937774 6.39518507,9.67930999 6.42608531,9.6710303 Z" id="形状结合"></path>
                </g>
            </g>
        </g>
    </g>
</svg>